# xmcd CD database file
#
# Track frame offsets:
#	150
#	16312
#	32325
#	51375
#	71775
#	92062
#	108862
#	122450
#	140387
#	157237
#	177462
#	192412
#	224375
#	234862
#
# Disc length: 3365 seconds
#
# Revision: 2
# Processed by: cddbd v1.5.2PL0 Copyright (c) Steve Scherf et al.
# Submitted via: CDex 1.70beta2
#
DISCID=c10d230e
DTITLE=川井 憲次 - 機動警察パトレイバーCD BOX DELUXE Disc 2
DYEAR=1992
DGENRE=Soundtrack
TTITLE0=Arise
TTITLE1=Night Stalkers
TTITLE2=VIRUS(Refine Mix)
TTITLE3=EXCAVATION-1(M1-2 M1-3 M1-7 M1-10 ME1-1 M1-12 M1-13)
TTITLE4=Northern Girl
TTITLE5=Diamond Flight(Refine Mix)
TTITLE6=INGRAM(Refine Mix)
TTITLE7=EXCAVATION-2(M-CM ME3-1 M3-7 M4-11 M5-4 M5-5A)
TTITLE8=湾岸BREAK
TTITLE9=POLICE FORCE(Refine Mix)
TTITLE10=後藤喜一の事件簿(Refine Mix)
TTITLE11=EXCAVATION-3(M5-8 M5-11 M6-2 M6-4 M6-7A)
TTITLE12=Per Heavy Armor
TTITLE13=朝陽の中へ(Refine Mix)
EXTD=YEAR: 1992
EXTT0=
EXTT1=
EXTT2=
EXTT3=
EXTT4=
EXTT5=
EXTT6=
EXTT7=
EXTT8=
EXTT9=
EXTT10=
EXTT11=
EXTT12=
EXTT13=
PLAYORDER=
